# xmcd
#
# Track frame offsets: 
#        150
#        14458
#        23524
#        48543
#        71240
#
# Disc length: 1815 seconds
#
# Revision: 0
# Processed by: cddbd v1.5.2PL0 Copyright (c) Steve Scherf et al.
# Submitted via: ExactAudioCopy v1.0b3
#
DISCID=3c071505
DTITLE=Käräväge - Ermite Marmite et Bleu de Delft
DYEAR=2010
DGENRE=Blues
TTITLE0=Evil in porcelain
TTITLE1=
TTITLE2=Ermite Marmite
TTITLE3=Cruelty sweeter than wine
TTITLE4=Be quiet Home (with bonus track)
EXTD=
EXTT0=
EXTT1=
EXTT2=
EXTT3=
EXTT4=
PLAYORDER=
